<svg className="lottie" width="44" height="44" viewBox="0 0 44 44" fill="none" xmlns="http://www.w3.org/2000/svg">
<path fill-rule="evenodd" clip-rule="evenodd" d="M3.252 0C2.38952 0 1.56236 0.34262 0.952489 0.952489C0.34262 1.56236 0 2.38952 0 3.252L0 40.748C0 41.6105 0.34262 42.4376 0.952489 43.0475C1.56236 43.6574 2.38952 44 3.252 44H40.139C41.0015 44 41.8286 43.6574 42.4385 43.0475C43.0484 42.4376 43.391 41.6105 43.391 40.748V3.252C43.391 2.38952 43.0484 1.56236 42.4385 0.952489C41.8286 0.34262 41.0015 0 40.139 0L3.252 0ZM34.9 11.165C35.076 9.957 34.254 8.835 33.063 8.656C28.568 7.982 24.309 12.032 19.766 20.804C16.199 27.692 12.991 31.154 10.806 30.99C9.606 30.9 8.561 31.814 8.472 33.03C8.384 34.247 9.285 35.307 10.485 35.397C14.908 35.728 19.11 31.575 23.625 22.858C27.16 16.031 30.318 12.711 32.426 13.028C33.616 13.205 34.724 12.372 34.9 11.164V11.165Z" fill="url(#paint0_linear)"/>
<defs>
<linearGradient id="paint0_linear" x1="-13.485" y1="25.573" x2="28.352" y2="52.389" gradientUnits="userSpaceOnUse">
<stop stop-color="#2BEAED"/>
<stop offset="1" stop-color="#0FCCCE"/>
</linearGradient>
</defs>
</svg>
